<svg width="16" height="16" viewBox="0 0 16 16" fill="none" xmlns="http://www.w3.org/2000/svg">
<path d="M15.6257 13.0994C15.8129 13.2865 16 13.5673 16 13.9415C16 14.3158 15.9064 14.5965 15.6257 14.7836L14.7836 15.6257C14.5965 15.8129 14.3158 16 13.9415 16C13.5673 16 13.2865 15.9064 13.0994 15.6257L8.04678 10.5731L2.99415 15.6257C2.80702 15.8129 2.52632 16 2.15205 16C1.77778 16 1.49708 15.9064 1.30994 15.6257L0.467836 14.7836C0.0935673 14.5029 0 14.2222 0 13.9415C0 13.5673 0.0935673 13.2865 0.374269 13.0994L5.4269 8.04678L0.374269 2.90058C0.0935673 2.61988 0 2.33918 0 2.05848C0 1.68421 0.0935673 1.40351 0.374269 1.21637L1.21637 0.374269C1.40351 0.0935673 1.68421 0 2.05848 0C2.43275 0 2.71345 0.0935673 2.90058 0.374269L7.95322 5.4269L13.0994 0.374269C13.2865 0.0935673 13.5673 0 13.9415 0C14.3158 0 14.5965 0.0935673 14.7836 0.374269L15.6257 1.21637C15.8129 1.40351 16 1.68421 16 2.05848C16 2.43275 15.9064 2.71345 15.6257 2.90058L10.5731 7.95322L15.6257 13.0994Z" fill="#2B7272"/>
</svg>
