<?xml version="1.0" encoding="iso-8859-1"?>
<!-- Generator: Adobe Illustrator 19.0.0, SVG Export Plug-In . SVG Version: 6.00 Build 0)  -->
<svg version="1.1" id="Layer_1" xmlns="http://www.w3.org/2000/svg" xmlns:xlink="http://www.w3.org/1999/xlink" x="0px" y="0px"
	 viewBox="0 0 512 512" style="enable-background:new 0 0 512 512;" xml:space="preserve">
<g>
	<g>
		<path d="M447.445,490.667h-30.891V53.333c0-5.888-4.779-10.667-10.667-10.667h-32v-32C373.888,4.779,369.109,0,363.221,0H149.888
			C144,0,139.221,4.779,139.221,10.667v32h-32c-5.888,0-10.667,4.779-10.667,10.667v437.333h-32
			c-5.888,0-10.667,4.779-10.667,10.667c0,5.888,4.779,10.667,10.667,10.667h128c5.888,0,10.667-4.779,10.667-10.667V448h106.667
			v53.333c0,5.888,4.779,10.667,10.667,10.667h126.891c5.888,0,10.667-4.779,10.667-10.667
			C458.112,495.445,453.333,490.667,447.445,490.667z M203.221,394.667c0,5.888-4.779,10.667-10.667,10.667h-42.667
			c-5.888,0-10.667-4.779-10.667-10.667V352c0-5.888,4.779-10.667,10.667-10.667h42.667c5.888,0,10.667,4.779,10.667,10.667V394.667
			z M203.221,309.333c0,5.888-4.779,10.667-10.667,10.667h-42.667c-5.888,0-10.667-4.779-10.667-10.667v-42.667
			c0-5.888,4.779-10.667,10.667-10.667h42.667c5.888,0,10.667,4.779,10.667,10.667V309.333z M203.221,224
			c0,5.888-4.779,10.667-10.667,10.667h-42.667c-5.888,0-10.667-4.779-10.667-10.667v-42.667c0-5.888,4.779-10.667,10.667-10.667
			h42.667c5.888,0,10.667,4.779,10.667,10.667V224z M203.221,138.667c0,5.888-4.779,10.667-10.667,10.667h-42.667
			c-5.888,0-10.667-4.779-10.667-10.667V96c0-5.888,4.779-10.667,10.667-10.667h42.667c5.888,0,10.667,4.779,10.667,10.667V138.667z
			 M288.555,394.667c0,5.888-4.779,10.667-10.667,10.667h-42.667c-5.888,0-10.667-4.779-10.667-10.667V352
			c0-5.888,4.779-10.667,10.667-10.667h42.667c5.888,0,10.667,4.779,10.667,10.667V394.667z M288.555,309.333
			c0,5.888-4.779,10.667-10.667,10.667h-42.667c-5.888,0-10.667-4.779-10.667-10.667v-42.667c0-5.888,4.779-10.667,10.667-10.667
			h42.667c5.888,0,10.667,4.779,10.667,10.667V309.333z M288.555,224c0,5.888-4.779,10.667-10.667,10.667h-42.667
			c-5.888,0-10.667-4.779-10.667-10.667v-42.667c0-5.888,4.779-10.667,10.667-10.667h42.667c5.888,0,10.667,4.779,10.667,10.667V224
			z M288.555,138.667c0,5.888-4.779,10.667-10.667,10.667h-42.667c-5.888,0-10.667-4.779-10.667-10.667V96
			c0-5.888,4.779-10.667,10.667-10.667h42.667c5.888,0,10.667,4.779,10.667,10.667V138.667z M373.888,394.667
			c0,5.888-4.779,10.667-10.667,10.667h-42.667c-5.888,0-10.667-4.779-10.667-10.667V352c0-5.888,4.779-10.667,10.667-10.667h42.667
			c5.888,0,10.667,4.779,10.667,10.667V394.667z M373.888,309.333c0,5.888-4.779,10.667-10.667,10.667h-42.667
			c-5.888,0-10.667-4.779-10.667-10.667v-42.667c0-5.888,4.779-10.667,10.667-10.667h42.667c5.888,0,10.667,4.779,10.667,10.667
			V309.333z M373.888,224c0,5.888-4.779,10.667-10.667,10.667h-42.667c-5.888,0-10.667-4.779-10.667-10.667v-42.667
			c0-5.888,4.779-10.667,10.667-10.667h42.667c5.888,0,10.667,4.779,10.667,10.667V224z M373.888,138.667
			c0,5.888-4.779,10.667-10.667,10.667h-42.667c-5.888,0-10.667-4.779-10.667-10.667V96c0-5.888,4.779-10.667,10.667-10.667h42.667
			c5.888,0,10.667,4.779,10.667,10.667V138.667z"/>
	</g>
</g>
<g>
</g>
<g>
</g>
<g>
</g>
<g>
</g>
<g>
</g>
<g>
</g>
<g>
</g>
<g>
</g>
<g>
</g>
<g>
</g>
<g>
</g>
<g>
</g>
<g>
</g>
<g>
</g>
<g>
</g>
</svg>
